%TF.GenerationSoftware,KiCad,Pcbnew,4.0.7*%
%TF.CreationDate,2018-11-26T14:01:30+00:00*%
%TF.ProjectId,LCD_Controller,4C43445F436F6E74726F6C6C65722E6B,rev?*%
%TF.FileFunction,Copper,L2,Bot,Signal*%
%FSLAX46Y46*%
G04 Gerber Fmt 4.6, Leading zero omitted, Abs format (unit mm)*
G04 Created by KiCad (PCBNEW 4.0.7) date 11/26/18 14:01:30*
%MOMM*%
%LPD*%
G01*
G04 APERTURE LIST*
%ADD10C,0.150000*%
%ADD11R,1.250000X1.000000*%
%ADD12R,0.900000X0.800000*%
%ADD13R,1.700000X1.700000*%
%ADD14O,1.700000X1.700000*%
%ADD15R,1.300000X0.700000*%
%ADD16R,0.700000X1.300000*%
%ADD17C,1.440000*%
%ADD18R,1.750000X1.750000*%
%ADD19C,1.750000*%
%ADD20R,1.750000X0.550000*%
%ADD21C,0.600000*%
%ADD22C,0.180000*%
%ADD23C,0.360000*%
G04 APERTURE END LIST*
D10*
X181787800Y-69189600D02*
X181787800Y-49174400D01*
X139776200Y-69189600D02*
X181787800Y-69189600D01*
X139776200Y-49174400D02*
X139776200Y-69189600D01*
X181813200Y-49174400D02*
X139776200Y-49174400D01*
D11*
X149250400Y-58563000D03*
X149250400Y-60563000D03*
D12*
X169434000Y-66570900D03*
X169434000Y-64670900D03*
X171434000Y-65620900D03*
D13*
X179832000Y-51054000D03*
D14*
X177292000Y-51054000D03*
X174752000Y-51054000D03*
X172212000Y-51054000D03*
X169672000Y-51054000D03*
X167132000Y-51054000D03*
X164592000Y-51054000D03*
X162052000Y-51054000D03*
X159512000Y-51054000D03*
X156972000Y-51054000D03*
X154432000Y-51054000D03*
X151892000Y-51054000D03*
X149352000Y-51054000D03*
X146812000Y-51054000D03*
X144272000Y-51054000D03*
X141732000Y-51054000D03*
D13*
X141681200Y-59804300D03*
D14*
X141681200Y-62344300D03*
D12*
X173713900Y-56664900D03*
X173713900Y-54764900D03*
X175713900Y-55714900D03*
X173599600Y-64259500D03*
X173599600Y-62359500D03*
X175599600Y-63309500D03*
D15*
X155689300Y-62511900D03*
X155689300Y-64411900D03*
X157911800Y-62499200D03*
X157911800Y-64399200D03*
X152019000Y-58638400D03*
X152019000Y-60538400D03*
X160096200Y-62511900D03*
X160096200Y-64411900D03*
X166966900Y-56593700D03*
X166966900Y-58493700D03*
D16*
X173687700Y-58280300D03*
X175587700Y-58280300D03*
X173649600Y-66052700D03*
X175549600Y-66052700D03*
X179245300Y-54076600D03*
X177345300Y-54076600D03*
X173649600Y-60579000D03*
X175549600Y-60579000D03*
D17*
X170180000Y-62687200D03*
X170180000Y-60147200D03*
X170180000Y-57607200D03*
D12*
X152269700Y-54701400D03*
X152269700Y-56601400D03*
X150269700Y-55651400D03*
X146796000Y-58676500D03*
X146796000Y-60576500D03*
X144796000Y-59626500D03*
D18*
X178536600Y-58445400D03*
D19*
X178536600Y-60945400D03*
X178536600Y-63445400D03*
X178536600Y-65945400D03*
D20*
X152861500Y-63423800D03*
X152861500Y-64693800D03*
X152861500Y-65963800D03*
X152861500Y-67233800D03*
X145461500Y-67233800D03*
X145461500Y-65963800D03*
X145461500Y-64693800D03*
X145461500Y-63423800D03*
D21*
X157238700Y-54102000D03*
X162737800Y-54076600D03*
X170357800Y-65557400D03*
X152857200Y-68211700D03*
X169430700Y-68249800D03*
X166497000Y-63093600D03*
X142392400Y-64617600D03*
X148755100Y-62953900D03*
X171754800Y-67818000D03*
X157899100Y-61595000D03*
X171424600Y-66535300D03*
X180073300Y-57391300D03*
X166065200Y-64858900D03*
X147764500Y-57480200D03*
X162877500Y-62953900D03*
X160096200Y-65481200D03*
X162902900Y-61683900D03*
X157911800Y-65481200D03*
X162890200Y-60439300D03*
X155689300Y-65506600D03*
X162077400Y-53479700D03*
X160566100Y-53962300D03*
X159943800Y-54622700D03*
X162775900Y-55702200D03*
X153416000Y-59067700D03*
X157835600Y-59956700D03*
X166636700Y-59867800D03*
X156375100Y-60413900D03*
X171399200Y-55702200D03*
X172618400Y-55689500D03*
X147142200Y-64693800D03*
X175920400Y-54076600D03*
X175755300Y-64541400D03*
X166331900Y-60693300D03*
X156692600Y-61429900D03*
X171361100Y-56527700D03*
X176504600Y-58305700D03*
X147764500Y-67233800D03*
X172656500Y-63233300D03*
X176580800Y-63258700D03*
X168198800Y-58420000D03*
X150190200Y-54025800D03*
D22*
X152269700Y-56601400D02*
X151699000Y-56601400D01*
X151699000Y-56601400D02*
X151269700Y-56172100D01*
X151269700Y-56172100D02*
X151269700Y-54063900D01*
X151269700Y-54063900D02*
X152374600Y-52959000D01*
X152374600Y-52959000D02*
X156095700Y-52959000D01*
X156095700Y-52959000D02*
X157238700Y-54102000D01*
X157238700Y-54102000D02*
X158419800Y-55283100D01*
X158419800Y-55283100D02*
X161531300Y-55283100D01*
X161531300Y-55283100D02*
X162737800Y-54076600D01*
X146796000Y-60576500D02*
X149236900Y-60576500D01*
X149236900Y-60576500D02*
X149907500Y-59905900D01*
X149907500Y-59905900D02*
X149961600Y-59905900D01*
X149961600Y-59905900D02*
X150418800Y-59448700D01*
X150418800Y-59448700D02*
X150418800Y-57429400D01*
X150418800Y-57429400D02*
X151246800Y-56601400D01*
X151246800Y-56601400D02*
X152269700Y-56601400D01*
X169434000Y-66570900D02*
X169434000Y-66481200D01*
X169434000Y-66481200D02*
X170357800Y-65557400D01*
D23*
X152861500Y-67233800D02*
X152861500Y-68207400D01*
X152861500Y-68207400D02*
X152857200Y-68211700D01*
X169434000Y-66570900D02*
X169434000Y-68246500D01*
X169434000Y-68246500D02*
X169430700Y-68249800D01*
X160096200Y-60566300D02*
X160096200Y-62511900D01*
X161099500Y-59563000D02*
X160096200Y-60566300D01*
X163804600Y-59563000D02*
X161099500Y-59563000D01*
X164731700Y-60490100D02*
X163804600Y-59563000D01*
X164731700Y-61328300D02*
X164731700Y-60490100D01*
X166497000Y-63093600D02*
X164731700Y-61328300D01*
X145461500Y-63423800D02*
X143598900Y-63423800D01*
X142405100Y-64617600D02*
X142392400Y-64617600D01*
X143598900Y-63423800D02*
X142405100Y-64617600D01*
X148285200Y-63423800D02*
X145461500Y-63423800D01*
X148755100Y-62953900D02*
X148285200Y-63423800D01*
X180098700Y-60680600D02*
X180124100Y-60655200D01*
X180098700Y-67475100D02*
X180098700Y-60680600D01*
X179755800Y-67818000D02*
X180098700Y-67475100D01*
X172186600Y-67818000D02*
X179755800Y-67818000D01*
X171754800Y-67818000D02*
X172186600Y-67818000D01*
X157911800Y-61607700D02*
X157911800Y-62499200D01*
X157899100Y-61595000D02*
X157911800Y-61607700D01*
X155689300Y-62511900D02*
X157899100Y-62511900D01*
X157899100Y-62511900D02*
X160096200Y-62511900D01*
D22*
X170180000Y-57607200D02*
X168503600Y-57607200D01*
X167858400Y-56593700D02*
X166966900Y-56593700D01*
X168160700Y-56896000D02*
X167858400Y-56593700D01*
X168160700Y-57264300D02*
X168160700Y-56896000D01*
X168503600Y-57607200D02*
X168160700Y-57264300D01*
D23*
X171434000Y-65620900D02*
X171434000Y-66525900D01*
X171434000Y-66525900D02*
X171424600Y-66535300D01*
X171488100Y-65620900D02*
X171434000Y-65620900D01*
X180124100Y-57442100D02*
X180124100Y-60655200D01*
X180073300Y-57391300D02*
X180124100Y-57442100D01*
X180124100Y-60655200D02*
X179833900Y-60945400D01*
X179833900Y-60945400D02*
X178536600Y-60945400D01*
D22*
X173713900Y-56664900D02*
X173713900Y-58254100D01*
X173713900Y-58254100D02*
X174612300Y-59152500D01*
X174612300Y-59152500D02*
X174612300Y-63817500D01*
X174612300Y-63817500D02*
X174170300Y-64259500D01*
X174170300Y-64259500D02*
X173599600Y-64259500D01*
D23*
X169434000Y-64670900D02*
X172171400Y-64670900D01*
X172582800Y-64259500D02*
X173599600Y-64259500D01*
X172171400Y-64670900D02*
X172582800Y-64259500D01*
X169434000Y-64670900D02*
X166253200Y-64670900D01*
X166253200Y-64670900D02*
X166065200Y-64858900D01*
X173599600Y-64259500D02*
X173649600Y-64309500D01*
X173649600Y-64309500D02*
X173649600Y-66052700D01*
D22*
X147764500Y-57480200D02*
X147396200Y-57480200D01*
X147396200Y-57480200D02*
X146796000Y-58080400D01*
X146796000Y-58080400D02*
X146796000Y-58676500D01*
X146796000Y-58676500D02*
X149136900Y-58676500D01*
X149136900Y-58676500D02*
X149250400Y-58563000D01*
X149136900Y-58676500D02*
X149250400Y-58563000D01*
X160096200Y-64411900D02*
X160759100Y-64411900D01*
X162217100Y-62953900D02*
X162877500Y-62953900D01*
X160759100Y-64411900D02*
X162217100Y-62953900D01*
X160096200Y-64411900D02*
X160096200Y-65481200D01*
X157911800Y-64399200D02*
X157911800Y-63664102D01*
X161772600Y-61683900D02*
X162902900Y-61683900D01*
X161493200Y-61963300D02*
X161772600Y-61683900D01*
X161493200Y-63106300D02*
X161493200Y-61963300D01*
X161049698Y-63549802D02*
X161493200Y-63106300D01*
X158026100Y-63549802D02*
X161049698Y-63549802D01*
X157911800Y-63664102D02*
X158026100Y-63549802D01*
X157911800Y-64399200D02*
X157911800Y-65481200D01*
X157911800Y-64427100D02*
X158102300Y-64236600D01*
X155689300Y-64411900D02*
X155689300Y-63334900D01*
X161417000Y-60439300D02*
X162890200Y-60439300D01*
X161112200Y-60744100D02*
X161417000Y-60439300D01*
X161112200Y-62941200D02*
X161112200Y-60744100D01*
X160883600Y-63169800D02*
X161112200Y-62941200D01*
X155854400Y-63169800D02*
X160883600Y-63169800D01*
X155689300Y-63334900D02*
X155854400Y-63169800D01*
X155689300Y-64411900D02*
X155689300Y-65506600D01*
X172212000Y-52095400D02*
X172212000Y-51054000D01*
X171056300Y-53251100D02*
X172212000Y-52095400D01*
X162306000Y-53251100D02*
X171056300Y-53251100D01*
X162077400Y-53479700D02*
X162306000Y-53251100D01*
X169672000Y-52285900D02*
X169672000Y-51054000D01*
X169100500Y-52857400D02*
X169672000Y-52285900D01*
X161671000Y-52857400D02*
X169100500Y-52857400D01*
X160566100Y-53962300D02*
X161671000Y-52857400D01*
X167132000Y-51943000D02*
X167132000Y-51054000D01*
X166649400Y-52425600D02*
X167132000Y-51943000D01*
X160705800Y-52425600D02*
X166649400Y-52425600D01*
X159943800Y-53187600D02*
X160705800Y-52425600D01*
X159943800Y-54622700D02*
X159943800Y-53187600D01*
X154355800Y-55702200D02*
X162775900Y-55702200D01*
X153708100Y-55956200D02*
X154355800Y-55702200D01*
X153708100Y-58775600D02*
X153708100Y-55956200D01*
X153416000Y-59067700D02*
X153708100Y-58775600D01*
X157835600Y-58064400D02*
X157835600Y-59956700D01*
X158394400Y-57505600D02*
X157835600Y-58064400D01*
X163969700Y-57505600D02*
X158394400Y-57505600D01*
X165874700Y-59410600D02*
X163969700Y-57505600D01*
X166179500Y-59410600D02*
X165874700Y-59410600D01*
X166636700Y-59867800D02*
X166179500Y-59410600D01*
X175713900Y-55714900D02*
X172643800Y-55714900D01*
X156375100Y-57785000D02*
X156375100Y-60413900D01*
X157772100Y-56388000D02*
X156375100Y-57785000D01*
X163296600Y-56388000D02*
X157772100Y-56388000D01*
X165290500Y-54394100D02*
X163296600Y-56388000D01*
X170091100Y-54394100D02*
X165290500Y-54394100D01*
X171399200Y-55702200D02*
X170091100Y-54394100D01*
X172643800Y-55714900D02*
X172618400Y-55689500D01*
X147142200Y-64693800D02*
X145461500Y-64693800D01*
X177345300Y-54076600D02*
X175920400Y-54076600D01*
X175713900Y-54283100D02*
X175713900Y-55714900D01*
X175920400Y-54076600D02*
X175713900Y-54283100D01*
X175599600Y-63309500D02*
X175599600Y-64385700D01*
X175599600Y-64385700D02*
X175755300Y-64541400D01*
X157822900Y-60985400D02*
X157137100Y-60985400D01*
X158508700Y-60299600D02*
X157822900Y-60985400D01*
X158508700Y-58496200D02*
X158508700Y-60299600D01*
X158902400Y-58102500D02*
X158508700Y-58496200D01*
X163741100Y-58102500D02*
X158902400Y-58102500D01*
X166331900Y-60693300D02*
X163741100Y-58102500D01*
X175549600Y-60579000D02*
X176199800Y-60579000D01*
X157137100Y-60985400D02*
X156692600Y-61429900D01*
X157137100Y-57785000D02*
X157137100Y-60985400D01*
X158051500Y-56870600D02*
X157137100Y-57785000D01*
X163576000Y-56870600D02*
X158051500Y-56870600D01*
X165595300Y-54851300D02*
X163576000Y-56870600D01*
X169684700Y-54851300D02*
X165595300Y-54851300D01*
X171361100Y-56527700D02*
X169684700Y-54851300D01*
X176504600Y-60274200D02*
X176504600Y-58305700D01*
X176199800Y-60579000D02*
X176504600Y-60274200D01*
X147764500Y-67233800D02*
X145461500Y-67233800D01*
X175549600Y-60579000D02*
X175549600Y-63259500D01*
X175549600Y-63259500D02*
X175599600Y-63309500D01*
X173649600Y-60579000D02*
X173649600Y-62309500D01*
X173649600Y-62309500D02*
X172725800Y-63233300D01*
X172725800Y-63233300D02*
X172656500Y-63233300D01*
X175549600Y-66052700D02*
X176047400Y-66052700D01*
X177257700Y-63445400D02*
X178536600Y-63445400D01*
X176631600Y-64071500D02*
X177257700Y-63445400D01*
X176631600Y-65468500D02*
X176631600Y-64071500D01*
X176047400Y-66052700D02*
X176631600Y-65468500D01*
X176733200Y-57134800D02*
X176733200Y-57238900D01*
X177126900Y-62712600D02*
X176580800Y-63258700D01*
X177126900Y-57632600D02*
X177126900Y-62712600D01*
X176733200Y-57238900D02*
X177126900Y-57632600D01*
X179245300Y-54076600D02*
X179245300Y-54930000D01*
X176733200Y-57134800D02*
X175587700Y-58280300D01*
X176733200Y-55880000D02*
X176733200Y-57134800D01*
X177342800Y-55270400D02*
X176733200Y-55880000D01*
X178904900Y-55270400D02*
X177342800Y-55270400D01*
X179245300Y-54930000D02*
X178904900Y-55270400D01*
X173713900Y-54764900D02*
X173713900Y-53285900D01*
X179245300Y-53147000D02*
X179245300Y-54076600D01*
X179031900Y-52933600D02*
X179245300Y-53147000D01*
X174066200Y-52933600D02*
X179031900Y-52933600D01*
X173713900Y-53285900D02*
X174066200Y-52933600D01*
X170180000Y-60147200D02*
X170180000Y-59486800D01*
X170180000Y-59486800D02*
X172008800Y-57658000D01*
X173990000Y-52362100D02*
X174752000Y-51600100D01*
X172834300Y-52362100D02*
X173990000Y-52362100D01*
X172008800Y-53187600D02*
X172834300Y-52362100D01*
X172008800Y-57658000D02*
X172008800Y-53187600D01*
X174752000Y-51600100D02*
X174752000Y-51054000D01*
X144796000Y-59626500D02*
X144796000Y-58601100D01*
X141732000Y-52857400D02*
X141732000Y-51054000D01*
X140411200Y-54178200D02*
X141732000Y-52857400D01*
X140411200Y-56692800D02*
X140411200Y-54178200D01*
X141287500Y-57569100D02*
X140411200Y-56692800D01*
X143764000Y-57569100D02*
X141287500Y-57569100D01*
X144796000Y-58601100D02*
X143764000Y-57569100D01*
X166966900Y-58493700D02*
X168125100Y-58493700D01*
X168125100Y-58493700D02*
X168198800Y-58420000D01*
X152269700Y-54701400D02*
X152783500Y-54701400D01*
X152803900Y-58638400D02*
X152019000Y-58638400D01*
X153250900Y-58191400D02*
X152803900Y-58638400D01*
X153250900Y-55168800D02*
X153250900Y-58191400D01*
X152783500Y-54701400D02*
X153250900Y-55168800D01*
X145461500Y-65963800D02*
X148145500Y-65963800D01*
X148844000Y-63713400D02*
X152019000Y-60538400D01*
X148844000Y-65265300D02*
X148844000Y-63713400D01*
X148145500Y-65963800D02*
X148844000Y-65265300D01*
X150269700Y-55651400D02*
X150269700Y-54105300D01*
X150269700Y-54105300D02*
X150190200Y-54025800D01*
M02*
