M48
;DRILL file {KiCad 4.0.7} date 11/26/18 14:11:20
;FORMAT={-:-/ absolute / inch / decimal}
FMAT,2
INCH,TZ
T1C0.016
T2C0.031
T3C0.039
%
G90
G05
M72
T1
X5.606Y-2.544
X5.793Y-2.547
X5.8175Y-2.263
X5.8175Y-2.647
X5.8565Y-2.4785
X5.913Y-2.127
X6.018Y-2.6855
X6.04Y-2.3255
X6.1295Y-2.579
X6.1565Y-2.3785
X6.169Y-2.4185
X6.1905Y-2.13
X6.214Y-2.3605
X6.2165Y-2.425
X6.217Y-2.578
X6.297Y-2.1505
X6.303Y-2.578
X6.3215Y-2.1245
X6.381Y-2.1055
X6.407Y-2.129
X6.4085Y-2.193
X6.4125Y-2.4785
X6.413Y-2.3795
X6.4135Y-2.4285
X6.538Y-2.5535
X6.5485Y-2.3895
X6.555Y-2.484
X6.5605Y-2.357
X6.622Y-2.3
X6.6705Y-2.687
X6.707Y-2.581
X6.7465Y-2.2255
X6.748Y-2.193
X6.749Y-2.6195
X6.762Y-2.67
X6.796Y-2.1925
X6.7975Y-2.4895
X6.9195Y-2.541
X6.926Y-2.129
X6.949Y-2.2955
X6.952Y-2.4905
X7.0895Y-2.2595
T2
X6.7Y-2.268
X6.7Y-2.368
X6.7Y-2.468
T3
X5.578Y-2.3545
X5.578Y-2.4545
X5.58Y-2.01
X5.68Y-2.01
X5.78Y-2.01
X5.88Y-2.01
X5.98Y-2.01
X6.08Y-2.01
X6.18Y-2.01
X6.28Y-2.01
X6.38Y-2.01
X6.48Y-2.01
X6.58Y-2.01
X6.68Y-2.01
X6.78Y-2.01
X6.88Y-2.01
X6.98Y-2.01
X7.029Y-2.301
X7.029Y-2.3994
X7.029Y-2.4979
X7.029Y-2.5963
X7.08Y-2.01
T0
M30
