%TF.GenerationSoftware,KiCad,Pcbnew,4.0.7*%
%TF.CreationDate,2018-11-26T14:01:30+00:00*%
%TF.ProjectId,LCD_Controller,4C43445F436F6E74726F6C6C65722E6B,rev?*%
%TF.FileFunction,Copper,L1,Top,Signal*%
%FSLAX46Y46*%
G04 Gerber Fmt 4.6, Leading zero omitted, Abs format (unit mm)*
G04 Created by KiCad (PCBNEW 4.0.7) date 11/26/18 14:01:30*
%MOMM*%
%LPD*%
G01*
G04 APERTURE LIST*
%ADD10C,0.150000*%
%ADD11R,1.250000X1.000000*%
%ADD12R,1.000000X1.250000*%
%ADD13R,1.300000X1.500000*%
%ADD14R,1.500000X0.600000*%
%ADD15R,1.270000X0.970000*%
%ADD16R,1.700000X1.700000*%
%ADD17O,1.700000X1.700000*%
%ADD18R,0.700000X1.300000*%
%ADD19R,1.300000X0.700000*%
%ADD20C,1.440000*%
%ADD21R,0.900000X0.800000*%
%ADD22R,1.450000X0.450000*%
%ADD23R,1.750000X1.750000*%
%ADD24C,1.750000*%
%ADD25C,0.600000*%
%ADD26C,0.360000*%
%ADD27C,0.180000*%
G04 APERTURE END LIST*
D10*
X181787800Y-69189600D02*
X181787800Y-49174400D01*
X139776200Y-69189600D02*
X181787800Y-69189600D01*
X139776200Y-49174400D02*
X139776200Y-69189600D01*
X181813200Y-49174400D02*
X139776200Y-49174400D01*
D11*
X168084500Y-67979800D03*
X168084500Y-65979800D03*
X166065200Y-68017900D03*
X166065200Y-66017900D03*
X150520400Y-67890900D03*
X150520400Y-65890900D03*
D12*
X168087800Y-55029100D03*
X170087800Y-55029100D03*
D13*
X145516600Y-67402700D03*
X145516600Y-64702700D03*
D14*
X164238200Y-62953900D03*
X164238200Y-61683900D03*
X164238200Y-60413900D03*
X164238200Y-59143900D03*
X164238200Y-57873900D03*
X164238200Y-56603900D03*
X164238200Y-55333900D03*
X164238200Y-54063900D03*
X154938200Y-54063900D03*
X154938200Y-55333900D03*
X154938200Y-56603900D03*
X154938200Y-57873900D03*
X154938200Y-59143900D03*
X154938200Y-60413900D03*
X154938200Y-61683900D03*
X154938200Y-62953900D03*
D15*
X155663900Y-66504900D03*
X155663900Y-67784900D03*
X157911800Y-66517600D03*
X157911800Y-67797600D03*
X160159700Y-66517600D03*
X160159700Y-67797600D03*
D16*
X179832000Y-51054000D03*
D17*
X177292000Y-51054000D03*
X174752000Y-51054000D03*
X172212000Y-51054000D03*
X169672000Y-51054000D03*
X167132000Y-51054000D03*
X164592000Y-51054000D03*
X162052000Y-51054000D03*
X159512000Y-51054000D03*
X156972000Y-51054000D03*
X154432000Y-51054000D03*
X151892000Y-51054000D03*
X149352000Y-51054000D03*
X146812000Y-51054000D03*
X144272000Y-51054000D03*
X141732000Y-51054000D03*
D15*
X163271200Y-66504900D03*
X163271200Y-67784900D03*
D16*
X141681200Y-59804300D03*
D17*
X141681200Y-62344300D03*
D18*
X149418000Y-58623200D03*
X151318000Y-58623200D03*
X149202100Y-53962300D03*
X151102100Y-53962300D03*
D19*
X141770100Y-66029800D03*
X141770100Y-67929800D03*
D18*
X173052700Y-54127400D03*
X174952700Y-54127400D03*
X170779400Y-67818000D03*
X172679400Y-67818000D03*
D20*
X170180000Y-62687200D03*
X170180000Y-60147200D03*
X170180000Y-57607200D03*
D21*
X145011900Y-54485500D03*
X145011900Y-56385500D03*
X147011900Y-55435500D03*
D22*
X167980000Y-59184900D03*
X167980000Y-59834900D03*
X167980000Y-60484900D03*
X167980000Y-61134900D03*
X172380000Y-61134900D03*
X172380000Y-60484900D03*
X172380000Y-59834900D03*
X172380000Y-59184900D03*
D15*
X141579600Y-54820900D03*
X141579600Y-56100900D03*
D23*
X178536600Y-58445400D03*
D24*
X178536600Y-60945400D03*
X178536600Y-63445400D03*
X178536600Y-65945400D03*
D25*
X157238700Y-54102000D03*
X162737800Y-54076600D03*
X170357800Y-65557400D03*
X152857200Y-68211700D03*
X169430700Y-68249800D03*
X166497000Y-63093600D03*
X142392400Y-64617600D03*
X148755100Y-62953900D03*
X171754800Y-67818000D03*
X157899100Y-61595000D03*
X171424600Y-66535300D03*
X180073300Y-57391300D03*
X166065200Y-64858900D03*
X147764500Y-57480200D03*
X162877500Y-62953900D03*
X160096200Y-65481200D03*
X162902900Y-61683900D03*
X157911800Y-65481200D03*
X162890200Y-60439300D03*
X155689300Y-65506600D03*
X162077400Y-53479700D03*
X160566100Y-53962300D03*
X159943800Y-54622700D03*
X162775900Y-55702200D03*
X153416000Y-59067700D03*
X157835600Y-59956700D03*
X166636700Y-59867800D03*
X156375100Y-60413900D03*
X171399200Y-55702200D03*
X172618400Y-55689500D03*
X147142200Y-64693800D03*
X175920400Y-54076600D03*
X175755300Y-64541400D03*
X166331900Y-60693300D03*
X156692600Y-61429900D03*
X171361100Y-56527700D03*
X176504600Y-58305700D03*
X147764500Y-67233800D03*
X172656500Y-63233300D03*
X176580800Y-63258700D03*
X168198800Y-58420000D03*
X150190200Y-54025800D03*
D26*
X163271200Y-67784900D02*
X162285600Y-67784900D01*
X157238700Y-55702200D02*
X157238700Y-54102000D01*
X161810700Y-60274200D02*
X157238700Y-55702200D01*
X161810700Y-67310000D02*
X161810700Y-60274200D01*
X162285600Y-67784900D02*
X161810700Y-67310000D01*
D27*
X162750500Y-54063900D02*
X164238200Y-54063900D01*
X162737800Y-54076600D02*
X162750500Y-54063900D01*
X164238200Y-54063900D02*
X167951400Y-54063900D01*
X167951400Y-54063900D02*
X168087800Y-54200300D01*
X168087800Y-54200300D02*
X168087800Y-55029100D01*
X172380000Y-59834900D02*
X171633000Y-59834900D01*
X171633000Y-59834900D02*
X170700700Y-58902600D01*
X170700700Y-58902600D02*
X169583100Y-58902600D01*
X169583100Y-58902600D02*
X168656000Y-57975500D01*
X168656000Y-57975500D02*
X168656000Y-55597300D01*
X168656000Y-55597300D02*
X168087800Y-55029100D01*
D26*
X163271200Y-67784900D02*
X163271200Y-68656200D01*
X163271200Y-68656200D02*
X163055300Y-68872100D01*
D27*
X170472100Y-65443100D02*
X170472100Y-62979300D01*
X170357800Y-65557400D02*
X170472100Y-65443100D01*
X170472100Y-62979300D02*
X170180000Y-62687200D01*
X167980000Y-61134900D02*
X168627700Y-61134900D01*
X168627700Y-61134900D02*
X170180000Y-62687200D01*
D26*
X152869900Y-68224400D02*
X152869900Y-68897500D01*
X152857200Y-68211700D02*
X152869900Y-68224400D01*
X169456100Y-68275200D02*
X169456100Y-68897500D01*
X169430700Y-68249800D02*
X169456100Y-68275200D01*
X150520400Y-67890900D02*
X150520400Y-68491100D01*
X145516600Y-68630800D02*
X145516600Y-67402700D01*
X145796000Y-68910200D02*
X145516600Y-68630800D01*
X150101300Y-68910200D02*
X145796000Y-68910200D01*
X150520400Y-68491100D02*
X150101300Y-68910200D01*
X155663900Y-67784900D02*
X155663900Y-68554600D01*
X150520400Y-68516500D02*
X150520400Y-67890900D01*
X150901400Y-68897500D02*
X150520400Y-68516500D01*
X155321000Y-68897500D02*
X152869900Y-68897500D01*
X152869900Y-68897500D02*
X150901400Y-68897500D01*
X155663900Y-68554600D02*
X155321000Y-68897500D01*
X160159700Y-67797600D02*
X160159700Y-68872100D01*
X157911800Y-67797600D02*
X157911800Y-68834000D01*
X157911800Y-68834000D02*
X157949900Y-68872100D01*
X178536600Y-58445400D02*
X180416200Y-58445400D01*
X169002200Y-68897500D02*
X168084500Y-67979800D01*
X180009800Y-68897500D02*
X169456100Y-68897500D01*
X169456100Y-68897500D02*
X169002200Y-68897500D01*
X180835300Y-68072000D02*
X180009800Y-68897500D01*
X180835300Y-58864500D02*
X180835300Y-68072000D01*
X180416200Y-58445400D02*
X180835300Y-58864500D01*
X168084500Y-67979800D02*
X168084500Y-68021200D01*
X168084500Y-68021200D02*
X167170100Y-68884800D01*
X167170100Y-68884800D02*
X167084500Y-68884800D01*
X167084500Y-68884800D02*
X166065200Y-68017900D01*
X166065200Y-68017900D02*
X166065200Y-68160900D01*
X166065200Y-68160900D02*
X165354000Y-68872100D01*
X165354000Y-68872100D02*
X163055300Y-68872100D01*
X163055300Y-68872100D02*
X162852100Y-68872100D01*
X162852100Y-68872100D02*
X160159700Y-68872100D01*
X160159700Y-68872100D02*
X157949900Y-68872100D01*
X157949900Y-68872100D02*
X155994100Y-68872100D01*
X155994100Y-68872100D02*
X155663900Y-68541900D01*
X155663900Y-68541900D02*
X155663900Y-67784900D01*
X180822600Y-52044600D02*
X179832000Y-51054000D01*
X178536600Y-58445400D02*
X180594000Y-58445400D01*
X180822600Y-52044600D02*
X180822600Y-57391300D01*
X180822600Y-58216800D02*
X180822600Y-52044600D01*
X180594000Y-58445400D02*
X180822600Y-58216800D01*
X168084500Y-65979800D02*
X168084500Y-64681100D01*
X168084500Y-64681100D02*
X166497000Y-63093600D01*
X141770100Y-65239900D02*
X141770100Y-66029800D01*
X142392400Y-64617600D02*
X141770100Y-65239900D01*
X150520400Y-65890900D02*
X150520400Y-64719200D01*
X150520400Y-64719200D02*
X148755100Y-62953900D01*
X168084500Y-65979800D02*
X168084500Y-66865500D01*
X170268900Y-67818000D02*
X170779400Y-67818000D01*
X169430700Y-66979800D02*
X170268900Y-67818000D01*
X168198800Y-66979800D02*
X169430700Y-66979800D01*
X168084500Y-66865500D02*
X168198800Y-66979800D01*
X170779400Y-67818000D02*
X171754800Y-67818000D01*
D27*
X170180000Y-57607200D02*
X170802300Y-57607200D01*
X170802300Y-57607200D02*
X172380000Y-59184900D01*
X172380000Y-59184900D02*
X173091200Y-59184900D01*
X173091200Y-59184900D02*
X173634400Y-59728100D01*
X173634400Y-59728100D02*
X173634400Y-60794900D01*
X173634400Y-60794900D02*
X173294400Y-61134900D01*
X173294400Y-61134900D02*
X172380000Y-61134900D01*
D26*
X154938200Y-62953900D02*
X157657800Y-62953900D01*
X157899100Y-62712600D02*
X157899100Y-61595000D01*
X157657800Y-62953900D02*
X157899100Y-62712600D01*
X150520400Y-65890900D02*
X153577800Y-65890900D01*
X154938200Y-64530500D02*
X154938200Y-62953900D01*
X153577800Y-65890900D02*
X154938200Y-64530500D01*
X141681200Y-59804300D02*
X140843000Y-59804300D01*
X140843000Y-59804300D02*
X140208000Y-60439300D01*
X140464500Y-66029800D02*
X141770100Y-66029800D01*
X140208000Y-65773300D02*
X140464500Y-66029800D01*
X140208000Y-60439300D02*
X140208000Y-65773300D01*
D27*
X170087800Y-55029100D02*
X170087800Y-57515000D01*
X170087800Y-57515000D02*
X170180000Y-57607200D01*
X173052700Y-54127400D02*
X171399200Y-54127400D01*
X170776900Y-55029100D02*
X170087800Y-55029100D01*
X171081700Y-54724300D02*
X170776900Y-55029100D01*
X171081700Y-54444900D02*
X171081700Y-54724300D01*
X171399200Y-54127400D02*
X171081700Y-54444900D01*
X177292000Y-51054000D02*
X177292000Y-52730400D01*
X173052700Y-53083500D02*
X173052700Y-54127400D01*
X173215300Y-52920900D02*
X173052700Y-53083500D01*
X177101500Y-52920900D02*
X173215300Y-52920900D01*
X177292000Y-52730400D02*
X177101500Y-52920900D01*
D26*
X171411900Y-66548000D02*
X170779400Y-66548000D01*
X171424600Y-66535300D02*
X171411900Y-66548000D01*
X170779400Y-66548000D02*
X170779400Y-67818000D01*
X177292000Y-51054000D02*
X177292000Y-51536600D01*
X177292000Y-51536600D02*
X178511200Y-52755800D01*
X180073300Y-53759100D02*
X180073300Y-57391300D01*
X179070000Y-52755800D02*
X180073300Y-53759100D01*
X178511200Y-52755800D02*
X179070000Y-52755800D01*
X166065200Y-64858900D02*
X166065200Y-66017900D01*
D27*
X149418000Y-58623200D02*
X149418000Y-58219300D01*
X149418000Y-58219300D02*
X148678900Y-57480200D01*
X148678900Y-57480200D02*
X147764500Y-57480200D01*
X141770100Y-67929800D02*
X142966400Y-67929800D01*
X143475700Y-64702700D02*
X145516600Y-64702700D01*
X143192500Y-64985900D02*
X143475700Y-64702700D01*
X143192500Y-67703700D02*
X143192500Y-64985900D01*
X142966400Y-67929800D02*
X143192500Y-67703700D01*
X162877500Y-62953900D02*
X164238200Y-62953900D01*
X160159700Y-65544700D02*
X160159700Y-66517600D01*
X160096200Y-65481200D02*
X160159700Y-65544700D01*
X162902900Y-61683900D02*
X164238200Y-61683900D01*
X157911800Y-65481200D02*
X157911800Y-66517600D01*
X157911800Y-66433700D02*
X157911800Y-66517600D01*
X162915600Y-60413900D02*
X164238200Y-60413900D01*
X162890200Y-60439300D02*
X162915600Y-60413900D01*
X155663900Y-65532000D02*
X155663900Y-66504900D01*
X155689300Y-65506600D02*
X155663900Y-65532000D01*
X155671600Y-66504900D02*
X155663900Y-66504900D01*
X164238200Y-59143900D02*
X161607500Y-59143900D01*
X161886900Y-53289200D02*
X162077400Y-53479700D01*
X159804100Y-53289200D02*
X161886900Y-53289200D01*
X158877000Y-54216300D02*
X159804100Y-53289200D01*
X158877000Y-56413400D02*
X158877000Y-54216300D01*
X161607500Y-59143900D02*
X158877000Y-56413400D01*
X164238200Y-57873900D02*
X160896300Y-57873900D01*
X159689800Y-53962300D02*
X160566100Y-53962300D01*
X159270700Y-54381400D02*
X159689800Y-53962300D01*
X159270700Y-56248300D02*
X159270700Y-54381400D01*
X160896300Y-57873900D02*
X159270700Y-56248300D01*
X164238200Y-56603900D02*
X160248600Y-56603900D01*
X159943800Y-56299100D02*
X159943800Y-54622700D01*
X160248600Y-56603900D02*
X159943800Y-56299100D01*
X151318000Y-58623200D02*
X152971500Y-58623200D01*
X162775900Y-55702200D02*
X164238200Y-55333900D01*
X152971500Y-58623200D02*
X153416000Y-59067700D01*
X154938200Y-54063900D02*
X154938200Y-52804800D01*
X154432000Y-52298600D02*
X154432000Y-51054000D01*
X154938200Y-52804800D02*
X154432000Y-52298600D01*
X154938200Y-55333900D02*
X154089100Y-55333900D01*
X153670000Y-52832000D02*
X151892000Y-51054000D01*
X153670000Y-54914800D02*
X153670000Y-52832000D01*
X154089100Y-55333900D02*
X153670000Y-54914800D01*
X154938200Y-56603900D02*
X153873200Y-56603900D01*
X150736300Y-52438300D02*
X149352000Y-51054000D01*
X152298400Y-52438300D02*
X150736300Y-52438300D01*
X153250900Y-53390800D02*
X152298400Y-52438300D01*
X153250900Y-55981600D02*
X153250900Y-53390800D01*
X153873200Y-56603900D02*
X153250900Y-55981600D01*
X154938200Y-57873900D02*
X154571700Y-57873900D01*
X154571700Y-57873900D02*
X152857200Y-56159400D01*
X152857200Y-56159400D02*
X152857200Y-53567602D01*
X152857200Y-53567602D02*
X152121598Y-52832000D01*
X152121598Y-52832000D02*
X148590000Y-52832000D01*
X148590000Y-52832000D02*
X146812000Y-51054000D01*
X167980000Y-59834900D02*
X166669600Y-59834900D01*
X157378400Y-60413900D02*
X156375100Y-60413900D01*
X157835600Y-59956700D02*
X157378400Y-60413900D01*
X166669600Y-59834900D02*
X166636700Y-59867800D01*
X156375100Y-60413900D02*
X154938200Y-60413900D01*
X172605700Y-55702200D02*
X171399200Y-55702200D01*
X172618400Y-55689500D02*
X172605700Y-55702200D01*
X154938200Y-60413900D02*
X153403300Y-60413900D01*
X153403300Y-60413900D02*
X153212800Y-60604400D01*
X153212800Y-60604400D02*
X153212800Y-61163200D01*
X153212800Y-61163200D02*
X152869900Y-61506100D01*
X152869900Y-61506100D02*
X150456900Y-61506100D01*
X150456900Y-61506100D02*
X150291800Y-61671200D01*
X150291800Y-61671200D02*
X148158200Y-61671200D01*
X148158200Y-61671200D02*
X147142200Y-62687200D01*
X147142200Y-62687200D02*
X147142200Y-64693800D01*
X174952700Y-54127400D02*
X175869600Y-54127400D01*
X175869600Y-54127400D02*
X175920400Y-54076600D01*
X172679400Y-65852000D02*
X172679400Y-67818000D01*
X173075600Y-65455800D02*
X172679400Y-65852000D01*
X174840900Y-65455800D02*
X173075600Y-65455800D01*
X175755300Y-64541400D02*
X174840900Y-65455800D01*
X167980000Y-60484900D02*
X166540300Y-60484900D01*
X166540300Y-60484900D02*
X166331900Y-60693300D01*
X156438600Y-61683900D02*
X154938200Y-61683900D01*
X156692600Y-61429900D02*
X156438600Y-61683900D01*
X176237900Y-56527700D02*
X171361100Y-56527700D01*
X176301400Y-56591200D02*
X176237900Y-56527700D01*
X176301400Y-58102500D02*
X176301400Y-56591200D01*
X176504600Y-58305700D02*
X176301400Y-58102500D01*
X154938200Y-61683900D02*
X153276300Y-61683900D01*
X153276300Y-61683900D02*
X153047700Y-61912500D01*
X153047700Y-61912500D02*
X150622000Y-61912500D01*
X150622000Y-61912500D02*
X150456900Y-62077600D01*
X150456900Y-62077600D02*
X148767800Y-62077600D01*
X148767800Y-62077600D02*
X147764500Y-63080900D01*
X147764500Y-63080900D02*
X147764500Y-67233800D01*
X172656500Y-63233300D02*
X172707300Y-63284100D01*
X172707300Y-63284100D02*
X174129700Y-63284100D01*
X174129700Y-63284100D02*
X175272700Y-62141100D01*
X175272700Y-62141100D02*
X176314100Y-62141100D01*
X176314100Y-62141100D02*
X177241200Y-63068200D01*
X177241200Y-63068200D02*
X177241200Y-63398400D01*
X177241200Y-63398400D02*
X177288200Y-63445400D01*
X177288200Y-63445400D02*
X178536600Y-63445400D01*
X177520600Y-64929400D02*
X178536600Y-65945400D01*
X177520600Y-64757300D02*
X177520600Y-64929400D01*
X176593500Y-63830200D02*
X177520600Y-64757300D01*
X176593500Y-63271400D02*
X176593500Y-63830200D01*
X176580800Y-63258700D02*
X176593500Y-63271400D01*
X172380000Y-60484900D02*
X170517700Y-60484900D01*
X170517700Y-60484900D02*
X170180000Y-60147200D01*
X147011900Y-55435500D02*
X144183100Y-55435500D01*
X143568500Y-54820900D02*
X141579600Y-54820900D01*
X144183100Y-55435500D02*
X143568500Y-54820900D01*
X141579600Y-54820900D02*
X141584600Y-54825900D01*
X141584600Y-54825900D02*
X143560800Y-54825900D01*
X143560800Y-54825900D02*
X143573500Y-54813200D01*
X143573500Y-54813200D02*
X143573500Y-52908200D01*
X143573500Y-52908200D02*
X144272000Y-52209700D01*
X144272000Y-52209700D02*
X144272000Y-51054000D01*
X163271200Y-66504900D02*
X163271200Y-64503300D01*
X166405200Y-59184900D02*
X167980000Y-59184900D01*
X165646100Y-59944000D02*
X166405200Y-59184900D01*
X165646100Y-63525400D02*
X165646100Y-59944000D01*
X165328600Y-63842900D02*
X165646100Y-63525400D01*
X163931600Y-63842900D02*
X165328600Y-63842900D01*
X163271200Y-64503300D02*
X163931600Y-63842900D01*
X167980000Y-58638800D02*
X167980000Y-59184900D01*
X168198800Y-58420000D02*
X167980000Y-58638800D01*
X145011900Y-54485500D02*
X145011900Y-53857400D01*
X148551900Y-53962300D02*
X149202100Y-53962300D01*
X147802600Y-53213000D02*
X148551900Y-53962300D01*
X145656300Y-53213000D02*
X147802600Y-53213000D01*
X145011900Y-53857400D02*
X145656300Y-53213000D01*
X150253700Y-53962300D02*
X151102100Y-53962300D01*
X150190200Y-54025800D02*
X150253700Y-53962300D01*
X143281400Y-56426100D02*
X143281400Y-56400700D01*
X142981600Y-56100900D02*
X141579600Y-56100900D01*
X143281400Y-56400700D02*
X142981600Y-56100900D01*
X141681200Y-62344300D02*
X142379700Y-62344300D01*
X142379700Y-62344300D02*
X143281400Y-61442600D01*
X143281400Y-61442600D02*
X143281400Y-56426100D01*
X143281400Y-56426100D02*
X143281400Y-56388000D01*
X143281400Y-56388000D02*
X143283900Y-56385500D01*
X143283900Y-56385500D02*
X145011900Y-56385500D01*
M02*
